<?xml version="1.0" encoding="utf-8"?>
<!-- Generator: Adobe Illustrator 21.1.0, SVG Export Plug-In . SVG Version: 6.00 Build 0)  -->
<svg version="1.1" id="Layer_1" xmlns="http://www.w3.org/2000/svg" xmlns:xlink="http://www.w3.org/1999/xlink" x="0px" y="0px"
	 viewBox="0 0 351.7 126.4" style="enable-background:new 0 0 351.7 126.4;" xml:space="preserve">
<style type="text/css">
	.st0{fill:#FFB53F;}
</style>
<g>
	<path class="st0" d="M151,24.5h-25.7v3.4h22.6l-15.8,18.4c0.8,0.8,2.6,1.6,5.6,2.5c1.4,0.4,2.9,0.7,4.3,0.7c1.7,0,2.9-0.2,3.8-0.7
		c1-0.6,1.7-1.6,2.1-3.2c0.2,0.6,0.3,1.2,0.3,1.7c0,2.4-1,4.2-3.1,5.4c-1,0.6-2.3,0.9-3.7,0.9c-3.3,0-6.3-0.8-9.2-2.4l-2.8-1.5
		c-1.4,2.1-3.7,3.1-6.7,3c-1.1,0-2.1-0.3-3-0.9c-1.1-0.6-1.6-1.5-1.6-2.5c0-1.6,1-3,2.9-4c1.6-0.8,3.3-1.2,5.1-1.2
		c0.6,0,1.1,0.1,1.7,0.2l11-13.3c-6.9,0-13.4,1-19.4,2.9l2.4-5.7v-3.9h-5.2v-3.6H151V24.5z"/>
	<path class="st0" d="M179,24.4h-19.5v4.7c0.1,0,0.2,0,0.2,0.1c0.1,0.1,0.1,0.1,0.2,0.1c-0.2,0-0.2,0-0.3,0c0-0.1,1.5-0.4,4.4-0.9
		c1.1-0.2,2.1-0.3,3.2-0.3c4.4,0,7.2,1.2,8.5,3.7c0.8,1.6,1.3,5,1.3,9.9V53c-0.4-0.2-2-0.8-4.7-1.9c0-0.6-0.1-1-0.4-1.2
		c-1,0.6-1.9,1.1-2.5,1.4c-2.1,1-4.6,1.5-7.4,1.5c-3.8,0-6.8-1.2-8.9-3.6c-1-1.2-1.5-2.5-1.5-3.9c0-1.6,0.8-3.2,2.4-4.8
		c3.1-3.1,7-4.7,11.6-4.7c2.8,0,5,0.6,6.7,1.9V35c-0.9-1.1-1.7-1.8-2.5-2.2s-1.9-0.5-3.3-0.5c-3.1,0.1-6,0.6-8.6,1.7
		c-1.2,0.5-2.3,0.9-3.4,1.3v-2.2c0.3-0.2,0.6-0.5,1.1-1c0.1-0.1,0.1-0.2,0.1-0.2v-7.6h-6v-3.5H179V24.4z M172.3,43
		c0-0.9-1-1.6-3.1-2.3c-1.7-0.6-3.1-0.8-4.2-0.8c-4.1,0-7.4,1.5-9.9,4.5c-1,1.2-1.5,2.2-1.5,2.9c0.4,1.4,2,2.1,4.8,2.1
		c3.6,0,7-0.9,10-2.7C171,45,172.3,43.8,172.3,43z"/>
	<path class="st0" d="M206.2,24.4H187V32c1.2-0.7,3-1.5,5.7-2.6c1.1-0.3,2.4-0.4,3.9-0.4c2.1,0,4,0.6,5.6,1.7
		c1.8,1.3,2.8,2.9,2.8,4.9c0,2.7-1.6,4.7-4.7,5.9c-1.3,0.5-2.4,0.8-3.3,0.8l6.8,8.3l-3.7,2.7l-10.5-12.4l1.9-4
		c1,0.3,2.1,0.4,3.3,0.4c1.7,0,3-0.4,4.1-1.2c1.2-0.9,1.8-2.1,1.8-3.7c0-1.6-1.1-2.3-3.3-2.3c-1.6,0-3.2,0.8-5,2.3
		c-1.2,1.1-2.4,2.4-3.4,3.9c-1.2,1.8-1.9,3.4-1.9,4.7v12.3L182,51V24.4h-3.7v-3.5h3.5c0-5.6-1-10.2-3-14c-0.4-0.7-1.1-1.8-2.3-3.2
		c-1.1-1.4-1.8-2.5-2.2-3.3h5.9c1.2,1.1,2.3,2.8,3.6,5.3c2.1,4.2,3.1,9.2,3.1,15.2h19.3L206.2,24.4L206.2,24.4z"/>
	<path class="st0" d="M235.6,24.4h-3.2v11.1c-1.2-0.7-2.8-1.3-5-1.8c-2-0.5-3.8-0.7-5.3-0.7c-3.6,0-6.6,0.6-9,1.9
		c-1.4,0.7-2.1,1.7-2.1,2.8c0,1.6,0.8,2.3,2.5,2.3c1,0,2.3-0.3,3.9-0.9c1-0.4,2.4-0.8,4-1.4c0.7-0.2,1.9-0.4,3.6-0.4
		c3.4,0,5.9,1,7.6,3.1c0.8,1,1.2,2.2,1.2,3.5c0,3.1-2,5.5-5.9,7.3c-1.6,0.7-3.2,1.2-4.6,1.3c1.4,1.4,2.7,2.1,4,2.1
		c0.4,0,0.8-0.1,1.3-0.2l3,4.8c-0.6,0.5-1.8,0.8-3.7,0.8c-1.5,0-2.8-0.5-3.9-1.6c-0.6-0.6-1.4-1.7-2.4-3.5c-0.9-1.5-1.6-2.3-2.2-2.3
		c-3.6-0.1-6.4-0.8-8.3-2c-1.2-0.8-1.8-1.8-1.8-3.1c0-1.6,1-2.5,2.9-2.5c0.7,0,2.2,0.6,4.5,1.7c2.3,1.1,4.2,1.7,5.7,1.7
		c3,0,5.8-0.7,8.3-2.1c1.3-0.7,1.9-1.5,1.9-2.5c0-1.5-1.2-2.2-3.5-2.2c-0.7,0-3.1,0.5-7,1.6c-2.3,0.6-3.8,0.9-4.3,0.9
		c-3.1,0-5.7-1.5-7.7-4.4c-1-1.4-1.5-2.9-1.5-4.5c0-3.3,2.2-5.5,6.8-6.7c1.9-0.5,3.6-0.7,5.2-0.7c1.9,0,4.5,0.5,8,1.4v-5h-23.3v-3.5
		h30.2v3.7C235.5,24.4,235.6,24.4,235.6,24.4z"/>
	<path class="st0" d="M11.1,89.8C11,89.9,10.8,90,10.5,90s-0.6,0-0.8-0.1L7.8,86C7,84.8,6,83.9,4.6,83.5c-1.4-0.5-2.2-1-2.5-1.5
		c-0.3-0.9-0.9-2.3-1.7-4.1v-0.7h1.1c1.5,0.5,2.7,0.9,3.7,1.3c1.5,0.7,2.6,1.5,3.1,2.4c0.3,0.5,0.7,1.7,1.3,3.8c0.6,1.9,1,3.2,1.4,4
		C11.1,88.9,11.1,89.3,11.1,89.8z M12.9,96.4h-12v-3.5h11.9v3.5H12.9z M9.5,125.4l-4.9-2.7V100h4.9V125.4z"/>
	<path class="st0" d="M43.8,96.4H12.3v-3.5h31.5V96.4z M37.5,109.3c0-4.7-2.2-7-6.7-7c-3.3,0-6,1.7-8.2,5.2c-2,3-2.9,6.3-2.9,9.7
		v8.5l-4.8-2.5v-22h5v3.5l2.6-2c2.3-1.7,4.7-2.6,7.3-2.6c3.5,0,6.4,1.3,8.6,4c2.1,2.5,3.2,5.6,3.2,9.1c0,4.4-1.9,8.7-5.6,12.8
		l-5.7-3.5c1.8-1.7,3.3-3.3,4.5-4.8C36.6,115.5,37.5,112.8,37.5,109.3z"/>
	<path class="st0" d="M77.1,96.4h-3.9v28.7l-5.3-2.3v-4.2c-3.2,4.1-6.3,6.1-9.3,6.1c-1.9,0-4-0.8-6.3-2.4c-2-1.4-3.6-3-4.9-4.9
		c-1.5-2.2-2.3-4.3-2.3-6.4c0-1.9,1.1-4.1,3.1-6.6c2.3-2.8,5.1-4.2,8.4-4.2c2.1,0,4.2,0.9,6.3,2.7c0.6,0.5,2.3,2.2,4.9,5.1V96.4h-25
		v-3.5h25.1c0-4-0.3-7.2-1-9.5c-1-3.4-3.3-7.4-6.8-12.1c-0.1,0-0.1-0.2-0.1-0.5c0-0.2,0.1-0.4,0.2-0.5h5.6c5,5.6,7.6,13.1,7.6,22.5
		h3.8L77.1,96.4L77.1,96.4z M66.4,109.8c0-1.5-0.8-2.8-2.5-3.9c-1.5-1-3-1.5-4.6-1.5c-1.2,0-2.6,0.5-4.4,1.6
		c-3.8,2.4-5.7,5.2-5.7,8.4c0,1.8,0.5,3.3,1.4,4.6c1.1,1.5,2.4,2.2,4.1,2.2c1.8,0,3.6-0.8,5.6-2.4c1.4-1.1,2.7-2.5,3.9-4.1
		C65.7,112.8,66.4,111.1,66.4,109.8z"/>
	<path class="st0" d="M86.5,89.8c-0.1,0.1-0.3,0.1-0.7,0.1c-0.3,0-0.6,0-0.8-0.1l-1.9-3.9c-0.8-1.2-1.8-2.1-3.2-2.5
		c-1.3-0.4-2.2-0.9-2.5-1.5c-0.3-0.9-0.9-2.3-1.7-4.1v-0.7h1.1c1.5,0.5,2.7,0.9,3.7,1.3c1.5,0.7,2.6,1.5,3.1,2.4
		c0.3,0.5,0.7,1.7,1.3,3.8c0.6,1.9,1,3.2,1.4,4C86.5,88.9,86.5,89.3,86.5,89.8z M88.2,96.4H76.3v-3.5h11.9
		C88.2,92.9,88.2,96.4,88.2,96.4z M84.9,125.4l-4.9-2.7V100h4.9V125.4z"/>
	<path class="st0" d="M116.6,96.4H97.1v4.7c0.1,0,0.2,0,0.2,0.1c0.1,0.1,0.1,0.1,0.2,0.1c-0.2,0-0.2,0-0.3,0c0-0.1,1.5-0.4,4.4-0.9
		c1.1-0.2,2.1-0.3,3.2-0.3c4.4,0,7.2,1.2,8.5,3.7c0.8,1.6,1.3,5,1.3,9.9V125c-0.4-0.2-2-0.8-4.7-1.9c0-0.6-0.1-1-0.4-1.2
		c-1,0.6-1.9,1.1-2.5,1.4c-2.1,1-4.6,1.5-7.4,1.5c-3.8,0-6.8-1.2-8.9-3.6c-1-1.2-1.5-2.5-1.5-3.9c0-1.6,0.8-3.2,2.4-4.8
		c3.1-3.1,7-4.7,11.6-4.7c2.8,0,5,0.6,6.7,1.9V107c-0.9-1.1-1.7-1.8-2.5-2.2c-0.8-0.4-1.9-0.5-3.3-0.5c-3.1,0.1-6,0.6-8.6,1.7
		c-1.2,0.5-2.3,0.9-3.4,1.3v-2.2c0.3-0.2,0.6-0.5,1.1-1c0.1-0.1,0.1-0.2,0.1-0.2v-7.6h-6v-3.5h29.4L116.6,96.4L116.6,96.4z
		 M109.9,115c0-0.9-1-1.6-3.1-2.3c-1.7-0.6-3.1-0.8-4.2-0.8c-4.1,0-7.4,1.5-9.9,4.5c-1,1.2-1.5,2.2-1.5,2.9c0.4,1.4,2,2.1,4.8,2.1
		c3.6,0,7-0.9,10-2.7C108.6,117,109.9,115.8,109.9,115z"/>
	<path class="st0" d="M147.7,96.4h-31.5v-3.5h31.5V96.4z M141.4,109.3c0-4.7-2.2-7-6.7-7c-3.3,0-6,1.7-8.2,5.2c-2,3-2.9,6.3-2.9,9.7
		v8.5l-4.8-2.5v-22h5v3.5l2.6-2c2.3-1.7,4.7-2.6,7.3-2.6c3.5,0,6.4,1.3,8.6,4c2.1,2.5,3.2,5.6,3.2,9.1c0,4.4-1.9,8.7-5.6,12.8
		l-5.7-3.5c1.8-1.7,3.3-3.3,4.5-4.8C140.5,115.5,141.4,112.8,141.4,109.3z"/>
	<path class="st0" d="M190.7,96.4h-19.2v7.6c1.2-0.7,3-1.5,5.7-2.6c1.1-0.3,2.4-0.4,3.9-0.4c2.1,0,4,0.6,5.6,1.7
		c1.8,1.3,2.8,2.9,2.8,4.9c0,2.7-1.6,4.7-4.7,5.9c-1.3,0.5-2.4,0.8-3.3,0.8l6.8,8.3l-3.7,2.7L174,112.8l1.9-4c1,0.3,2.1,0.4,3.3,0.4
		c1.7,0,3-0.4,4.1-1.2c1.2-0.9,1.8-2.1,1.8-3.7s-1.1-2.3-3.3-2.3c-1.6,0-3.2,0.8-5,2.3c-1.2,1.1-2.4,2.4-3.4,3.9
		c-1.2,1.8-1.9,3.4-1.9,4.7v12.3l-5.1-2.3V96.4h-3.7v-3.5h3.5c0-5.6-1-10.2-3-14c-0.4-0.7-1.1-1.8-2.3-3.2c-1.1-1.4-1.8-2.5-2.2-3.3
		h5.9c1.2,1.1,2.3,2.8,3.6,5.3c2.1,4.2,3.1,9.2,3.1,15.2h19.3L190.7,96.4L190.7,96.4z"/>
	<path class="st0" d="M200.2,89.8c-0.1,0.1-0.3,0.1-0.7,0.1c-0.3,0-0.6,0-0.8-0.1l-1.9-3.9c-0.8-1.2-1.8-2.1-3.2-2.5
		c-1.3-0.4-2.2-0.9-2.5-1.5c-0.3-0.9-0.9-2.3-1.7-4.1v-0.7h1.1c1.5,0.5,2.7,0.9,3.7,1.3c1.5,0.7,2.6,1.5,3.1,2.4
		c0.3,0.5,0.7,1.7,1.3,3.8c0.6,1.9,1,3.2,1.4,4C200.2,88.9,200.2,89.3,200.2,89.8z M201.9,96.4H190v-3.5h11.9V96.4z M198.6,125.4
		l-4.9-2.7V100h4.9V125.4z"/>
	<path class="st0" d="M227.6,96.4h-14.8V120c0,0.7,0.2,1.3,0.6,1.9c0.4,0.7,1,1,1.6,1c2.9,0,4.4-3,4.4-9l5.9,3.4
		c-2.2,5-5.7,7.5-10.4,7.4c-2.7,0-4.9-1.3-6.4-3.8c-0.7-1.1-1-2.2-1-3.2V96.4h-6.1v-3.5h6.1v-9.8l5.3,3.7V93h14.8L227.6,96.4
		L227.6,96.4z"/>
	<path class="st0" d="M258.2,96.4h-6.1v8.2c1.3,1.2,2.1,2,2.3,2.3c0.5,0.6,1,1.6,1.5,2.9h-3.8c0-2.1-0.6-3.8-1.8-5s-2.9-1.8-5-1.8
		c-2.2,0-4.3,0.6-6.3,1.8c-1.9,1.2-3.4,2.7-4.5,4.7c-1.1,1.9-1.6,3.7-1.6,5.5c0,2.1,0.8,3.7,2.3,4.8c1.3,1,3.1,1.5,5.2,1.5
		c3.6,0,6.1-1,7.6-3h6.2c-0.5,2.1-2.5,3.9-5.8,5.3c-1.5,0.6-2.9,1-4.2,1c-2.5,0-5.1-0.7-7.6-2.1c-2.4-1.3-4.5-3.1-6-5.2
		c-1.6-2.1-2.4-4.2-2.4-6.3c0-1.6,0.7-3.3,2.1-5.3c2.9-4.1,6.5-6.2,10.6-6.2c2.8,0,4.9,0.6,6.5,1.7v-4.9h-20.7v-3.5h31.5V96.4z"/>
	<path class="st0" d="M290,96.4h-23.6v8.8c2.1-2.3,4.1-3.8,5.9-4.5c1-0.4,2.2-0.6,3.4-0.6c4.8,0,8.3,2.3,10.7,7
		c1,2.1,1.6,4.1,1.6,6.1c0,3.6-1.5,6.9-4.5,9.8c-1,1-1.7,1.7-2.2,2l-4.8-2.9c1.2-1.3,2.6-2.8,4.1-4.7c1.7-2.1,2.6-4.7,2.6-7.9
		c0-1.9-0.4-3.5-1.3-4.7c-1-1.5-2.4-2.2-4.2-2.2c-1.7,0-3.5,0.7-5.4,1.9c-1.7,1.1-3.1,2.4-4.3,3.9c-1.2,1.6-1.8,3.2-1.8,4.7V125
		l-5.5-2.9V96.4h-3.2v-3.5h3.2c0-5.7-1.5-10.6-4.5-14.7c-1.8-2.4-3.5-4.2-5-5.1l5.9-0.1c3.3,1.8,5.9,5.7,7.8,11.6
		c0.9,2.8,1.4,5.6,1.4,8.3H290V96.4z"/>
	<path class="st0" d="M320.5,96.4h-8v5.8c0.9,0.2,1.6,0.5,2,0.8v3.5c-2.3-0.8-4.7-1.2-7.3-1.2c-1.8,0-3.6,0.3-5.3,0.9
		c-2.3,0.8-3.4,2-3.4,3.4c0,1.6,2.2,2.4,6.7,2.4c0.1,0,0.7,0,1.9-0.1l1.8-0.1v2.7c-2.7,0.1-4.3,0.1-5,0.2c-4.7,0.4-7,1.8-7,4
		c0,1.3,0.8,2.3,2.4,3c1.3,0.6,2.6,0.8,4.1,0.8c6.3,0,11.5-2.8,15.4-8.4v7.4c-3.4,2.1-7.3,3.2-11.9,3.2c-5,0-9.4-1.2-13-3.5
		c-1.8-1.1-2.7-2.4-2.7-3.9c0-1.4,0.6-2.7,1.9-3.7c0.8-0.6,2-1.4,3.8-2.2l-1.9-1.1c-1.2-0.7-1.7-1.6-1.7-2.7c0-2.4,1.8-4.2,5.5-5.2
		c2.8-0.8,5.9-1.2,9.3-1.2v-4.8h-18.8v-3.5h31.3L320.5,96.4L320.5,96.4z"/>
	<path class="st0" d="M351.3,96.4h-31.5v-3.5h31.5V96.4z M345,109.3c0-4.7-2.2-7-6.7-7c-3.3,0-6,1.7-8.2,5.2c-2,3-2.9,6.3-2.9,9.7
		v8.5l-4.8-2.5v-22h5v3.5l2.6-2c2.3-1.7,4.7-2.6,7.3-2.6c3.5,0,6.4,1.3,8.6,4c2.1,2.5,3.2,5.6,3.2,9.1c0,4.4-1.9,8.7-5.6,12.8
		l-5.7-3.5c1.8-1.7,3.3-3.3,4.5-4.8C344.2,115.5,345,112.8,345,109.3z"/>
</g>
</svg>
